# xmcd
#
# Track frame offsets: 
#        182
#        12157
#        29682
#        41482
#        53720
#        63957
#        75395
#        87232
#        94745
#        107145
#        118557
#        129357
#        141070
#        152720
#        166370
#        180657
#
# Disc length: 2520 seconds
#
# Revision: 5
# Processed by: cddbd v1.5.2PL0 Copyright (c) Steve Scherf et al.
# Submitted via: ExactAudioCopy v0.99pb5
#
DISCID=c509d610
DTITLE=Various Artist - Country Gold - The Stars and Hits of Country and Western 
DTITLE=Music - CD 2
DYEAR=1900
DGENRE=Country
TTITLE0=Conway Twitty - You made me what I am
TTITLE1=Johnny Paycheck - I'm a survivor
TTITLE2=Patti Page - Mockin' bird hill
TTITLE3=George Jones - Take me
TTITLE4=Pozo Seco - Take my hand for a while
TTITLE5=Marty Robbins - Ribbons of darkness
TTITLE6=Kitty Wells - Heartbreak U.S.A.
TTITLE7=Stonewall Jackson - Mary don't you weep
TTITLE8=Lefty Frizzell - I love you a thousand ways
TTITLE9=Patsy Cline - Crazy dreams
TTITLE10=Waylon Jennings - Dream baby
TTITLE11=Porter Wagoner - Misery loves company
TTITLE12=Lester Flatt and Earl Scruggs - Till the end of the world rolls
TTITLE12=around
TTITLE13=Willie Nelson - Everything but you
TTITLE14=Billie Jo Spears - Cryin' time
TTITLE15=Johnny Cash - Country boy
EXTD=
EXTT0=
EXTT1=
EXTT2=
EXTT3=
EXTT4=
EXTT5=
EXTT6=
EXTT7=
EXTT8=
EXTT9=
EXTT10=
EXTT11=
EXTT12=
EXTT13=
EXTT14=
EXTT15=
PLAYORDER=
